<svg width="156" height="156" viewBox="0 0 156 156" fill="none" xmlns="http://www.w3.org/2000/svg">
<rect width="156" height="156" rx="23" fill="#242937"/>
<rect x="18" y="18" width="120" height="120" rx="23" fill="#191D28"/>
<path d="M39.2727 66.4545V113H33.6364V66.4545H39.2727ZM48.0284 71.4545V66.4545H82.9375V71.4545H68.3011V113H62.6648V71.4545H48.0284ZM100.028 113.727C96.7557 113.727 93.9375 112.955 91.5739 111.409C89.2102 109.864 87.392 107.735 86.1193 105.023C84.8466 102.311 84.2102 99.2121 84.2102 95.7273C84.2102 92.1818 84.8617 89.053 86.1648 86.3409C87.483 83.6136 89.3163 81.4848 91.6648 79.9545C94.0284 78.4091 96.786 77.6364 99.9375 77.6364C102.392 77.6364 104.604 78.0909 106.574 79C108.544 79.9091 110.157 81.1818 111.415 82.8182C112.672 84.4545 113.453 86.3636 113.756 88.5455H108.392C107.983 86.9545 107.074 85.5455 105.665 84.3182C104.271 83.0758 102.392 82.4545 100.028 82.4545C97.9375 82.4545 96.1042 83 94.5284 84.0909C92.9678 85.1667 91.7481 86.6894 90.8693 88.6591C90.0057 90.6136 89.5739 92.9091 89.5739 95.5455C89.5739 98.2424 89.9981 100.591 90.8466 102.591C91.7102 104.591 92.9223 106.144 94.483 107.25C96.0587 108.356 97.9072 108.909 100.028 108.909C101.422 108.909 102.688 108.667 103.824 108.182C104.96 107.697 105.922 107 106.71 106.091C107.498 105.182 108.059 104.091 108.392 102.818H113.756C113.453 104.879 112.703 106.735 111.506 108.386C110.324 110.023 108.756 111.326 106.801 112.295C104.862 113.25 102.604 113.727 100.028 113.727Z" fill="#768ACA"/>
</svg>
